<svg xmlns="http://www.w3.org/2000/svg" viewBox="0 0 1000 670" role="img">
<title>Mice-elephant interference: shared service class creates tail slowdown</title>
<desc>Mice FCT percentiles, P99 slowdown, and final-link peak queue for isolation and priority controls.</desc>
<rect width="1000" height="670" fill="#f8fafc"/>
<text x="40.0" y="40.0" font-family="system-ui,sans-serif" font-size="24" font-weight="700" text-anchor="start" fill="#172033">Mice-elephant interference: shared service class creates tail slowdown</text>
<rect x="40" y="65" width="920" height="300" fill="#ffffff" stroke="#cbd5e1"/>
<text x="52.0" y="88.0" font-family="system-ui,sans-serif" font-size="15" font-weight="600" text-anchor="start" fill="#172033">Mice flow completion time (us)</text>
<line x1="102" y1="313.0" x2="942" y2="313.0" stroke="#e2e8f0"/>
<text x="94.0" y="317.0" font-family="system-ui,sans-serif" font-size="11" font-weight="400" text-anchor="end" fill="#172033">0</text>
<line x1="102" y1="268.5" x2="942" y2="268.5" stroke="#e2e8f0"/>
<text x="94.0" y="272.5" font-family="system-ui,sans-serif" font-size="11" font-weight="400" text-anchor="end" fill="#172033">212</text>
<line x1="102" y1="224.0" x2="942" y2="224.0" stroke="#e2e8f0"/>
<text x="94.0" y="228.0" font-family="system-ui,sans-serif" font-size="11" font-weight="400" text-anchor="end" fill="#172033">425</text>
<line x1="102" y1="179.5" x2="942" y2="179.5" stroke="#e2e8f0"/>
<text x="94.0" y="183.5" font-family="system-ui,sans-serif" font-size="11" font-weight="400" text-anchor="end" fill="#172033">638</text>
<line x1="102" y1="135.0" x2="942" y2="135.0" stroke="#e2e8f0"/>
<text x="94.0" y="139.0" font-family="system-ui,sans-serif" font-size="11" font-weight="400" text-anchor="end" fill="#172033">850</text>
<rect x="156.0" y="277.6" width="32.0" height="35.4" fill="#2563eb"/>
<rect x="190.0" y="277.2" width="32.0" height="35.8" fill="#f97316"/>
<rect x="224.0" y="277.2" width="32.0" height="35.8" fill="#16a34a"/>
<text x="207.0" y="331.0" font-family="system-ui,sans-serif" font-size="11" font-weight="400" text-anchor="middle" fill="#172033">mice only</text>
<rect x="366.0" y="277.6" width="32.0" height="35.4" fill="#2563eb"/>
<rect x="400.0" y="277.2" width="32.0" height="35.8" fill="#f97316"/>
<rect x="434.0" y="277.2" width="32.0" height="35.8" fill="#16a34a"/>
<text x="417.0" y="331.0" font-family="system-ui,sans-serif" font-size="11" font-weight="400" text-anchor="middle" fill="#172033">disjoint</text>
<rect x="576.0" y="173.4" width="32.0" height="139.6" fill="#2563eb"/>
<rect x="610.0" y="152.3" width="32.0" height="160.7" fill="#f97316"/>
<rect x="644.0" y="150.9" width="32.0" height="162.1" fill="#16a34a"/>
<text x="627.0" y="331.0" font-family="system-ui,sans-serif" font-size="11" font-weight="400" text-anchor="middle" fill="#172033">shared VL7</text>
<rect x="786.0" y="277.6" width="32.0" height="35.4" fill="#2563eb"/>
<rect x="820.0" y="277.2" width="32.0" height="35.8" fill="#f97316"/>
<rect x="854.0" y="277.2" width="32.0" height="35.8" fill="#16a34a"/>
<text x="837.0" y="331.0" font-family="system-ui,sans-serif" font-size="11" font-weight="400" text-anchor="middle" fill="#172033">shared + VL1</text>
<rect x="102" y="102" width="11" height="11" fill="#2563eb"/>
<text x="118.0" y="112.0" font-family="system-ui,sans-serif" font-size="11" font-weight="400" text-anchor="start" fill="#172033">median FCT</text>
<rect x="252" y="102" width="11" height="11" fill="#f97316"/>
<text x="268.0" y="112.0" font-family="system-ui,sans-serif" font-size="11" font-weight="400" text-anchor="start" fill="#172033">P95 FCT</text>
<rect x="402" y="102" width="11" height="11" fill="#16a34a"/>
<text x="418.0" y="112.0" font-family="system-ui,sans-serif" font-size="11" font-weight="400" text-anchor="start" fill="#172033">P99 FCT</text>
<rect x="40" y="385" width="445" height="245" fill="#ffffff" stroke="#cbd5e1"/>
<text x="52.0" y="408.0" font-family="system-ui,sans-serif" font-size="15" font-weight="600" text-anchor="start" fill="#172033">Mice P99 slowdown (x baseline)</text>
<line x1="102" y1="578.0" x2="467" y2="578.0" stroke="#e2e8f0"/>
<text x="94.0" y="582.0" font-family="system-ui,sans-serif" font-size="11" font-weight="400" text-anchor="end" fill="#172033">0</text>
<line x1="102" y1="544.2" x2="467" y2="544.2" stroke="#e2e8f0"/>
<text x="94.0" y="548.2" font-family="system-ui,sans-serif" font-size="11" font-weight="400" text-anchor="end" fill="#172033">1</text>
<line x1="102" y1="510.5" x2="467" y2="510.5" stroke="#e2e8f0"/>
<text x="94.0" y="514.5" font-family="system-ui,sans-serif" font-size="11" font-weight="400" text-anchor="end" fill="#172033">2</text>
<line x1="102" y1="476.8" x2="467" y2="476.8" stroke="#e2e8f0"/>
<text x="94.0" y="480.8" font-family="system-ui,sans-serif" font-size="11" font-weight="400" text-anchor="end" fill="#172033">4</text>
<line x1="102" y1="443.0" x2="467" y2="443.0" stroke="#e2e8f0"/>
<text x="94.0" y="447.0" font-family="system-ui,sans-serif" font-size="11" font-weight="400" text-anchor="end" fill="#172033">5</text>
<rect x="130.6" y="551.0" width="32.0" height="27.0" fill="#2563eb"/>
<text x="146.6" y="546.0" font-family="system-ui,sans-serif" font-size="11" font-weight="400" text-anchor="middle" fill="#172033">1.00</text>
<text x="147.6" y="596.0" font-family="system-ui,sans-serif" font-size="11" font-weight="400" text-anchor="middle" fill="#172033">mice only</text>
<rect x="221.9" y="551.0" width="32.0" height="27.0" fill="#2563eb"/>
<text x="237.9" y="546.0" font-family="system-ui,sans-serif" font-size="11" font-weight="400" text-anchor="middle" fill="#172033">1.00</text>
<text x="238.9" y="596.0" font-family="system-ui,sans-serif" font-size="11" font-weight="400" text-anchor="middle" fill="#172033">disjoint</text>
<rect x="313.1" y="455.7" width="32.0" height="122.3" fill="#2563eb"/>
<text x="329.1" y="450.7" font-family="system-ui,sans-serif" font-size="11" font-weight="400" text-anchor="middle" fill="#172033">4.53</text>
<text x="330.1" y="596.0" font-family="system-ui,sans-serif" font-size="11" font-weight="400" text-anchor="middle" fill="#172033">shared VL7</text>
<rect x="404.4" y="551.0" width="32.0" height="27.0" fill="#2563eb"/>
<text x="420.4" y="546.0" font-family="system-ui,sans-serif" font-size="11" font-weight="400" text-anchor="middle" fill="#172033">1.00</text>
<text x="421.4" y="596.0" font-family="system-ui,sans-serif" font-size="11" font-weight="400" text-anchor="middle" fill="#172033">shared + VL1</text>
<rect x="515" y="385" width="445" height="245" fill="#ffffff" stroke="#cbd5e1"/>
<text x="527.0" y="408.0" font-family="system-ui,sans-serif" font-size="15" font-weight="600" text-anchor="start" fill="#172033">Final-link peak queue (MiB)</text>
<line x1="577" y1="578.0" x2="942" y2="578.0" stroke="#e2e8f0"/>
<text x="569.0" y="582.0" font-family="system-ui,sans-serif" font-size="11" font-weight="400" text-anchor="end" fill="#172033">0</text>
<line x1="577" y1="544.2" x2="942" y2="544.2" stroke="#e2e8f0"/>
<text x="569.0" y="548.2" font-family="system-ui,sans-serif" font-size="11" font-weight="400" text-anchor="end" fill="#172033">6</text>
<line x1="577" y1="510.5" x2="942" y2="510.5" stroke="#e2e8f0"/>
<text x="569.0" y="514.5" font-family="system-ui,sans-serif" font-size="11" font-weight="400" text-anchor="end" fill="#172033">12</text>
<line x1="577" y1="476.8" x2="942" y2="476.8" stroke="#e2e8f0"/>
<text x="569.0" y="480.8" font-family="system-ui,sans-serif" font-size="11" font-weight="400" text-anchor="end" fill="#172033">18</text>
<line x1="577" y1="443.0" x2="942" y2="443.0" stroke="#e2e8f0"/>
<text x="569.0" y="447.0" font-family="system-ui,sans-serif" font-size="11" font-weight="400" text-anchor="end" fill="#172033">24</text>
<rect x="605.6" y="535.9" width="32.0" height="42.1" fill="#2563eb"/>
<text x="621.6" y="530.9" font-family="system-ui,sans-serif" font-size="11" font-weight="400" text-anchor="middle" fill="#172033">7.49</text>
<text x="622.6" y="596.0" font-family="system-ui,sans-serif" font-size="11" font-weight="400" text-anchor="middle" fill="#172033">mice only</text>
<rect x="696.9" y="535.9" width="32.0" height="42.1" fill="#2563eb"/>
<text x="712.9" y="530.9" font-family="system-ui,sans-serif" font-size="11" font-weight="400" text-anchor="middle" fill="#172033">7.49</text>
<text x="713.9" y="596.0" font-family="system-ui,sans-serif" font-size="11" font-weight="400" text-anchor="middle" fill="#172033">disjoint</text>
<rect x="788.1" y="490.3" width="32.0" height="87.7" fill="#2563eb"/>
<text x="804.1" y="485.3" font-family="system-ui,sans-serif" font-size="11" font-weight="400" text-anchor="middle" fill="#172033">15.59</text>
<text x="805.1" y="596.0" font-family="system-ui,sans-serif" font-size="11" font-weight="400" text-anchor="middle" fill="#172033">shared VL7</text>
<rect x="879.4" y="460.1" width="32.0" height="117.9" fill="#2563eb"/>
<text x="895.4" y="455.1" font-family="system-ui,sans-serif" font-size="11" font-weight="400" text-anchor="middle" fill="#172033">20.96</text>
<text x="896.4" y="596.0" font-family="system-ui,sans-serif" font-size="11" font-weight="400" text-anchor="middle" fill="#172033">shared + VL1</text>
<text x="40.0" y="652.0" font-family="system-ui,sans-serif" font-size="11" font-weight="400" text-anchor="start" fill="#172033">ns-3-UB 9e6368f · RNG run 1 · 400 Gbps · queue profile</text>
</svg>
